<?xml version="1.0" encoding="UTF-8" standalone="no"?>
<svg
   height="48"
   width="48"
   version="1.1"
   id="svg16"
   sodipodi:docname="tray-base.svg"
   inkscape:version="1.4.3 (0d15f75042, 2025-12-25)"
   xml:space="preserve"
   xmlns:inkscape="http://www.inkscape.org/namespaces/inkscape"
   xmlns:sodipodi="http://sodipodi.sourceforge.net/DTD/sodipodi-0.dtd"
   xmlns:xlink="http://www.w3.org/1999/xlink"
   xmlns="http://www.w3.org/2000/svg"
   xmlns:svg="http://www.w3.org/2000/svg"><defs
     id="defs16"><style
       type="text/css"
       id="current-color-scheme">
      .ColorScheme-Text {
        color:#232629;
      }
      </style></defs><sodipodi:namedview
     id="namedview16"
     pagecolor="#ffffff"
     bordercolor="#666666"
     borderopacity="1.0"
     inkscape:showpageshadow="2"
     inkscape:pageopacity="0.0"
     inkscape:pagecheckerboard="0"
     inkscape:deskcolor="#d1d1d1"
     inkscape:zoom="18.583334"
     inkscape:cx="12.834081"
     inkscape:cy="25.426009"
     inkscape:window-width="2560"
     inkscape:window-height="1368"
     inkscape:window-x="0"
     inkscape:window-y="40"
     inkscape:window-maximized="1"
     inkscape:current-layer="svg16" /><linearGradient
     id="c"
     gradientUnits="userSpaceOnUse"
     x1="10"
     x2="34"
     xlink:href="#a"
     y1="10"
     y2="34"
     gradientTransform="translate(-43.056824,0.063072)" /><linearGradient
     id="d"
     gradientUnits="userSpaceOnUse"
     x2="0"
     y1="20"
     y2="44"><stop
       offset="0"
       stop-color="#eff0f1"
       id="stop1" /><stop
       offset="1"
       stop-color="#bdc3c7"
       id="stop2" /></linearGradient><linearGradient
     id="b"
     gradientTransform="matrix(1 0 0 1.08333 0 -6.84)"
     gradientUnits="userSpaceOnUse"
     x2="0"
     y1="12"
     y2="32"><stop
       offset="0"
       stop-color="#9559b6"
       id="stop3" /><stop
       offset="1"
       stop-color="#8e44ad"
       id="stop4" /></linearGradient><linearGradient
     id="a"
     gradientTransform="translate(384.57 500.8)"
     gradientUnits="userSpaceOnUse"
     x1="10"
     x2="15"
     y1="36"
     y2="41"><stop
       offset="0"
       stop-color="#292c2f"
       id="stop5" /><stop
       offset="1"
       stop-opacity="0"
       id="stop6" /></linearGradient><linearGradient
     id="e"
     gradientTransform="translate(14.1 1)"
     gradientUnits="userSpaceOnUse"
     x1="9.905"
     x2="14.905"
     xlink:href="#a"
     y1="36"
     y2="41" /><linearGradient
     id="f"
     gradientTransform="translate(0 1)"
     gradientUnits="userSpaceOnUse"
     x1="10"
     x2="15"
     xlink:href="#a"
     y1="36"
     y2="41" /><g
     id="g1"><rect
       style="fill:#000000;stroke:#000000;stroke-width:1.39886;stroke-dasharray:none"
       id="rect1"
       width="33.875797"
       height="33.875797"
       x="7.0621014"
       y="7.0621014"
       ry="3.3345304"
       rx="2.7646928" /><path
       d="m 28.904118,16.348146 c -3.991946,0.05145 -8.854954,1.845169 -11.318965,1.770633 -2.270863,-0.06724 -6.754938,-0.555373 -8.4875942,0.898887 -0.742086,0.620998 3.7724982,0.420075 8.7924652,3.111672 5.294542,2.838036 5.621716,5.44335 5.621716,5.44335 0,0 -2.742582,2.174909 -3.589027,4.065853 1.319848,0 1.596736,0.01438 1.596736,0.01438 0.189151,-0.279307 0.47677,-0.579273 0.735774,-0.885316 0.258794,-0.306246 0.553776,-0.61715 0.88579,-0.917116 0.333065,-0.298954 0.703582,-0.587781 1.113023,-0.847238 0.205352,-0.129831 0.419962,-0.252369 0.64425,-0.366401 0.225129,-0.113829 0.459516,-0.218342 0.705265,-0.311714 0.244907,-0.09337 0.500545,-0.175605 0.766703,-0.24447 0.265527,-0.06886 0.542415,-0.124969 0.830034,-0.165275 0.287829,-0.04051 0.570398,-0.05226 0.848338,-0.03889 0.279413,0.01357 0.553146,0.05226 0.820987,0.112412 0.268682,0.06096 0.531684,0.143198 0.789005,0.243659 0.256479,0.100462 0.507909,0.219152 0.752816,0.352831 0.244066,0.133678 0.482451,0.283358 0.713471,0.443164 0.230811,0.160617 0.454468,0.332171 0.669708,0.512637 0.432375,0.35992 0.8334,0.751638 1.198447,1.148826 0.364836,0.397187 0.341902,0.568741 0.630362,0.94851 h 5.359346 c 0,0 -0.543257,-11.677023 -6.496776,-14.627268 -1.016028,-0.50413 -2.250453,-0.679735 -3.581874,-0.663127 z m -1.241789,3.259731 c 0.508751,0 1.018343,0.199303 0.955854,0.637606 -0.05765,0.405897 -0.480767,0.520739 -0.920506,0.531676 -0.510434,0.01357 -0.910618,-0.173984 -0.945965,-0.584539 -0.03388,-0.395567 0.275205,-0.584743 0.910617,-0.584743 z m -12.581374,0.03484 c 3.765765,-0.01357 5.583002,0.607629 6.532333,1.141736 1.255045,0.706471 0.765861,1.498415 -0.496547,1.271364 -1.963466,-0.353641 -1.789885,-1.079151 -6.035786,-2.4131 z"
       style="fill:#ffffff;fill-opacity:1;fill-rule:evenodd;stroke:none;stroke-width:0.206435"
       id="path82-7"
       inkscape:connector-curvature="0" /><rect
       style="fill:none;stroke:#000000;stroke-width:1.39886;stroke-dasharray:none"
       id="rect2"
       width="5.3627644"
       height="3.757277"
       x="1.6358464"
       y="12.196446" /><rect
       style="fill:none;stroke:#000000;stroke-width:1.39886;stroke-dasharray:none"
       id="rect2-3"
       width="5.3627644"
       height="3.757277"
       x="1.6358464"
       y="18.771236" /><rect
       style="fill:none;stroke:#000000;stroke-width:1.39886;stroke-dasharray:none"
       id="rect2-6"
       width="5.3627644"
       height="3.757277"
       x="1.6358464"
       y="25.346027" /><rect
       style="fill:none;stroke:#000000;stroke-width:1.39886;stroke-dasharray:none"
       id="rect2-7"
       width="5.3627644"
       height="3.757277"
       x="1.6358464"
       y="31.920816" /><rect
       style="fill:none;stroke:#000000;stroke-width:1.39886;stroke-dasharray:none"
       id="rect2-35"
       width="5.3627644"
       height="3.757277"
       x="41.001389"
       y="12.905772" /><rect
       style="fill:none;stroke:#000000;stroke-width:1.39886;stroke-dasharray:none"
       id="rect2-3-6"
       width="5.3627644"
       height="3.757277"
       x="41.001389"
       y="19.480562" /><rect
       style="fill:none;stroke:#000000;stroke-width:1.39886;stroke-dasharray:none"
       id="rect2-6-2"
       width="5.3627644"
       height="3.757277"
       x="41.001389"
       y="26.055353" /><rect
       style="fill:none;stroke:#000000;stroke-width:1.39886;stroke-dasharray:none"
       id="rect2-7-9"
       width="5.3627644"
       height="3.757277"
       x="41.001389"
       y="32.630142" /><rect
       style="fill:none;stroke:#000000;stroke-width:1.39886;stroke-dasharray:none"
       id="rect2-2"
       width="5.3627644"
       height="3.757277"
       x="1.5283155"
       y="-35.740826"
       transform="rotate(90)" /><rect
       style="fill:none;stroke:#000000;stroke-width:1.39886;stroke-dasharray:none"
       id="rect2-3-7"
       width="5.3627644"
       height="3.757277"
       x="1.5283155"
       y="-29.166035"
       transform="rotate(90)" /><rect
       style="fill:none;stroke:#000000;stroke-width:1.39886;stroke-dasharray:none"
       id="rect2-6-0"
       width="5.3627644"
       height="3.757277"
       x="1.5283155"
       y="-22.591244"
       transform="rotate(90)" /><rect
       style="fill:none;stroke:#000000;stroke-width:1.39886;stroke-dasharray:none"
       id="rect2-7-93"
       width="5.3627644"
       height="3.757277"
       x="1.5283155"
       y="-16.016453"
       transform="rotate(90)" /><rect
       style="fill:none;stroke:#000000;stroke-width:1.39886;stroke-dasharray:none"
       id="rect2-2-0"
       width="5.3627644"
       height="3.757277"
       x="40.956718"
       y="-35.740826"
       transform="rotate(90)" /><rect
       style="fill:none;stroke:#000000;stroke-width:1.39886;stroke-dasharray:none"
       id="rect2-3-7-6"
       width="5.3627644"
       height="3.757277"
       x="40.956718"
       y="-29.166035"
       transform="rotate(90)" /><rect
       style="fill:none;stroke:#000000;stroke-width:1.39886;stroke-dasharray:none"
       id="rect2-6-0-2"
       width="5.3627644"
       height="3.757277"
       x="40.956718"
       y="-22.591244"
       transform="rotate(90)" /><rect
       style="fill:none;stroke:#000000;stroke-width:1.39886;stroke-dasharray:none"
       id="rect2-7-93-6"
       width="5.3627644"
       height="3.757277"
       x="40.956718"
       y="-16.016453"
       transform="rotate(90)" /></g></svg>
